<svg width="60" height="60" viewBox="0 0 60 60" fill="none" xmlns="http://www.w3.org/2000/svg">
<path d="M1.5 30C1.5 14.2599 14.2599 1.5 30 1.5C45.7401 1.5 58.5 14.2599 58.5 30C58.5 45.7401 45.7401 58.5 30 58.5C14.2599 58.5 1.5 45.7401 1.5 30Z" fill="#FBF8F4" stroke="#191919" stroke-width="3"/>
<path d="M39.2077 15.2676C35.405 15.2676 32.0755 16.8285 30.0002 19.467C27.9248 16.8285 24.5953 15.2676 20.7926 15.2676C17.7655 15.2708 14.8634 16.4201 12.723 18.4633C10.5826 20.5064 9.37856 23.2766 9.37515 26.166C9.37515 38.4707 28.4883 48.4305 29.3022 48.8418C29.5167 48.952 29.7565 49.0096 30.0002 49.0096C30.2438 49.0096 30.4836 48.952 30.6981 48.8418C31.512 48.4305 50.6252 38.4707 50.6252 26.166C50.6217 23.2766 49.4177 20.5064 47.2773 18.4633C45.1369 16.4201 42.2348 15.2708 39.2077 15.2676ZM30.0002 45.9941C26.6375 44.1238 12.3216 35.6037 12.3216 26.166C12.3245 24.0223 13.2179 21.9673 14.8059 20.4515C16.3939 18.9357 18.5468 18.0829 20.7926 18.0801C24.3743 18.0801 27.3815 19.9012 28.6374 22.8262C28.7484 23.0841 28.9372 23.3047 29.1799 23.4599C29.4225 23.6152 29.708 23.6981 30.0002 23.6981C30.2923 23.6981 30.5778 23.6152 30.8204 23.4599C31.0631 23.3047 31.2519 23.0841 31.3629 22.8262C32.6188 19.8959 35.626 18.0801 39.2077 18.0801C41.4535 18.0829 43.6064 18.9357 45.1944 20.4515C46.7824 21.9673 47.6758 24.0223 47.6787 26.166C47.6787 35.5896 33.3591 44.1221 30.0002 45.9941Z" fill="#191919"/>
</svg>
