<svg width="60" height="60" viewBox="0 0 60 60" fill="none" xmlns="http://www.w3.org/2000/svg">
<path d="M1.5 30C1.5 14.2599 14.2599 1.5 30 1.5C45.7401 1.5 58.5 14.2599 58.5 30C58.5 45.7401 45.7401 58.5 30 58.5C14.2599 58.5 1.5 45.7401 1.5 30Z" fill="#FBB13C" stroke="#191919" stroke-width="3"/>
<path d="M39.2077 15.2676C35.405 15.2676 32.0755 16.8285 30.0002 19.467C27.9248 16.8285 24.5953 15.2676 20.7926 15.2676C17.7655 15.2708 14.8634 16.4201 12.723 18.4633C10.5826 20.5064 9.37856 23.2766 9.37515 26.166C9.37515 38.4707 28.4883 48.4305 29.3022 48.8418C29.5167 48.952 29.7565 49.0096 30.0002 49.0096C30.2438 49.0096 30.4836 48.952 30.6981 48.8418C31.512 48.4305 50.6252 38.4707 50.6252 26.166C50.6217 23.2766 49.4177 20.5064 47.2773 18.4633C45.1369 16.4201 42.2348 15.2708 39.2077 15.2676ZM30.0002 45.9941C26.6375 44.1238 12.3216 35.6037 12.3216 26.166C9.37515 39.1069 43.296 60.9765 28.6374 34.8211C30.2254 33.3053 27.2187 46.6097 29.4644 46.6069C33.0462 46.6069 26.6014 24.3961 27.8573 27.3211C27.9683 27.5791 28.8015 40.1783 29.1799 23.4599C17.6787 26.7854 32.9223 30.5354 33.2144 30.5354C33.5065 30.5354 33.5075 24.2621 33.7502 24.1069C33.9928 23.9516 31.4963 22.2219 31.6073 21.964C32.8632 19.0337 24.8113 35.8926 28.393 35.8926C30.6388 35.8954 30.6333 44.0196 32.2213 45.5354C33.8093 47.0512 31.6044 31.0703 31.6073 33.214C31.6073 42.6376 33.3591 44.1221 30.0002 45.9941Z" fill="#191919"/>
<path d="M39.2077 15.2676C35.405 15.2676 32.0755 16.8285 30.0002 19.467C27.9248 16.8285 24.5953 15.2676 20.7926 15.2676C17.7655 15.2708 14.8634 16.4201 12.723 18.4633C10.5826 20.5064 9.37856 23.2766 9.37515 26.166C9.37515 38.4707 28.4883 48.4305 29.3022 48.8418C29.5167 48.952 29.7565 49.0096 30.0002 49.0096C30.2438 49.0096 30.4836 48.952 30.6981 48.8418C31.512 48.4305 50.6252 38.4707 50.6252 26.166C50.6217 23.2766 49.4177 20.5064 47.2773 18.4633C45.1369 16.4201 42.2348 15.2708 39.2077 15.2676ZM30.0002 45.9941C26.6375 44.1238 12.3216 35.6037 12.3216 26.166C9.37515 39.1069 43.296 60.9765 28.6374 34.8211C30.2254 33.3053 27.2187 46.6097 29.4644 46.6069C33.0462 46.6069 26.6014 24.3961 27.8573 27.3211C27.9683 27.5791 28.8015 40.1783 29.1799 23.4599C17.6787 26.7854 32.9223 30.5354 33.2144 30.5354C33.5065 30.5354 33.5075 24.2621 33.7502 24.1069C33.9928 23.9516 31.4963 22.2219 31.6073 21.964C32.8632 19.0337 24.8113 35.8926 28.393 35.8926C30.6388 35.8954 30.6333 44.0196 32.2213 45.5354C33.8093 47.0512 31.6044 31.0703 31.6073 33.214C31.6073 42.6376 33.3591 44.1221 30.0002 45.9941Z" fill="black" fill-opacity="0.2"/>
</svg>
